<?xml version="1.0" encoding="UTF-8" standalone="no"?>
<!DOCTYPE svg PUBLIC "-//W3C//DTD SVG 20010904//EN"
              "http://www.w3.org/TR/2001/REC-SVG-20010904/DTD/svg10.dtd">

<svg xmlns="http://www.w3.org/2000/svg"
     width="3.94444in" height="0.511111in"
     viewBox="0 0 355 46">
  <path id="Imported Path"
        fill="black" stroke="black" stroke-width="1"
        d="M 1.09,0.61
           C 1.09,0.61 12.91,0.61 12.91,0.61
             12.91,0.61 12.91,45.39 12.91,45.39
             12.91,45.39 1.09,45.39 1.09,45.39
             1.09,45.39 1.09,0.61 1.09,0.61
             1.09,0.61 1.09,0.61 1.09,0.61 Z
           M 106.52,0.61
           C 106.52,0.61 135.05,0.61 135.05,0.61
             146.53,0.61 155.92,10.01 155.92,21.48
             155.92,21.48 155.92,24.51 155.92,24.51
             155.92,35.98 146.53,45.37 135.05,45.37
             135.05,45.37 106.54,45.37 106.54,45.37
             95.06,45.37 85.67,35.98 85.67,24.51
             85.67,24.51 85.67,21.53 85.67,21.53
             85.66,10.02 95.04,0.61 106.52,0.61
             106.52,0.61 106.52,0.61 106.52,0.61 Z
           M 144.11,10.57
           C 144.11,10.57 97.48,10.57 97.48,10.57
             97.48,10.57 97.48,34.82 97.48,34.82
             97.48,34.82 144.11,34.82 144.11,34.82
             144.11,34.82 144.11,10.57 144.11,10.57
             144.11,10.57 144.11,10.57 144.11,10.57 Z
           M 170.85,0.61
           C 170.85,0.61 159.03,0.61 159.03,0.61
             159.03,0.61 159.03,26.76 159.03,26.76
             159.03,33.84 162.96,40.44 169.36,43.46
             176.52,46.84 184.50,45.43 190.03,39.91
             190.03,39.91 198.32,31.62 198.32,31.62
             198.32,31.62 201.12,28.82 201.12,28.82
             201.75,35.79 206.15,41.60 212.91,44.11
             219.63,46.61 227.19,44.75 232.25,39.68
             232.25,39.68 240.32,31.62 240.32,31.62
             240.32,31.62 271.32,0.61 271.32,0.61
             271.32,0.61 272.06,0.61 272.06,0.61
             272.06,0.61 255.39,0.61 255.39,0.61
             255.39,0.61 224.19,31.62 224.19,31.62
             224.19,31.62 213.11,42.63 213.11,42.63
             213.11,42.63 213.11,17.18 213.11,17.18
             213.11,17.18 229.78,0.60 229.78,0.60
             229.78,0.60 213.11,0.60 213.11,0.60
             213.11,0.60 181.91,31.61 181.91,31.61
             181.91,31.61 170.82,42.61 170.82,42.61
             170.82,42.61 170.82,0.61 170.82,0.61
             170.82,0.61 170.85,0.61 170.85,0.61 Z
           M 71.36,0.61
           C 71.36,0.61 83.18,0.61 83.18,0.61
             83.18,0.61 83.18,26.71 83.18,26.71
             83.18,33.81 79.21,40.42 72.79,43.45
             65.55,46.84 57.50,45.45 51.92,39.92
             51.92,39.92 43.56,31.63 43.56,31.63
             43.56,31.63 12.91,0.63 12.91,0.63
             12.91,0.63 29.00,0.63 29.00,0.63
             29.00,0.63 60.26,31.63 60.26,31.63
             60.26,31.63 71.35,42.64 71.35,42.64
             71.35,42.64 71.35,0.61 71.35,0.61
             71.35,0.61 71.36,0.61 71.36,0.61 Z
           M 271.47,0.61
           C 271.47,0.61 283.29,0.61 283.29,0.61
             283.29,0.61 283.29,45.39 283.29,45.39
             283.29,45.39 271.47,45.39 271.47,45.39
             271.47,45.39 271.47,0.61 271.47,0.61
             271.47,0.61 271.47,0.61 271.47,0.61 Z
           M 342.35,0.61
           C 342.35,0.61 354.17,0.61 354.17,0.61
             354.17,0.61 354.17,26.71 354.17,26.71
             354.17,33.81 350.20,40.42 343.78,43.45
             336.54,46.84 328.49,45.45 322.91,39.92
             322.91,39.92 314.55,31.63 314.55,31.63
             314.55,31.63 283.29,0.63 283.29,0.63
             283.29,0.63 300.00,0.63 300.00,0.63
             300.00,0.63 331.26,31.63 331.26,31.63
             331.26,31.63 342.35,42.64 342.35,42.64
             342.35,42.64 342.35,0.61 342.35,0.61 Z" />
</svg>
