<svg fill="none" xmlns="http://www.w3.org/2000/svg" viewBox="-10 -5 85 105" style="height: 45px;"><g fill="#666"><path d="M35.6 15.5c2.3-1 4.6-1.8 6.8-2.4 4.1 4.6 3.2 12.6-1.7 19.9l-6.5-4.4c3.5-4.9 4.4-10 1.4-13.1zM63 10.7c4.9 8.6 2.5 21.6-5.8 33.4l-9.6-6.4c6.6-9.5 7.9-20.1 2.9-26.3 5.5-.8 10.1-.8 12.5-.7zM30.6 18.1c1.2 1.9.9 4.8-.7 7.5l-5.1-3.4c1.8-1.5 3.8-2.9 5.8-4.1z"></path></g><g fill="#039"><path d="M14.8 27.5c0-2.1 1.1-4.6 3-6.8l1.5 1.9c-1.7 1.6-3.2 3.3-4.5 4.9zM17.5 17c5.9-5.3 12.9-7.8 18.4-7.2-1.8 1-3.8 2.2-5.7 3.5-3.5 0-7.6 1.6-11.2 4.7l-1.5-1zM11.2 43.9c.7-2.4 1.7-4.8 2.8-7.2 3.3 3.2 9.2 2 14.6-2.1l4.9 6.3c-8 6-17.3 7.4-22.3 3zM17.1 19.9c-3.3 3.6-5.1 7.7-5.2 11.3-1.6 2.1-2.9 4.2-4 6.2-.7-5.7 2.2-12.9 8.1-18.8l1.1 1.3zM45.4 56.4C32.4 66.5 17.3 69.5 8 63.6c0-2.6.3-6.8 1.2-11.7 6.8 5.5 18.9 3.5 29.2-4.6l7 9.1z"></path><path d="M15.9 15.9C29.2 3.3 45.8-1.2 56.2 4.2c-2.7 0-7.5.3-13.6 2.6-7.6-1.5-17.6 2-25.9 9.7l-.8-.6zM2 56.8c-5.1-10.5-.1-27 12.8-39.9l.6.8C7.1 26.1 3.2 36.4 4.7 44.2 2.6 49.6 2 54 2 56.8zM25.4 30.4c-3.1 2.1-6.5 2.6-8.7 1.2 1.4-2.2 2.9-4.3 4.8-6.2l3.9 5zM19.8 18.7c2.2-1.7 4.6-2.6 6.7-2.6-1.5 1.2-3.1 2.6-4.7 4l-2-1.4z"></path></g></svg>