<?xml version="1.0" encoding="UTF-8" standalone="no"?>
<!DOCTYPE svg PUBLIC "-//W3C//DTD SVG 20010904//EN"
              "http://www.w3.org/TR/2001/REC-SVG-20010904/DTD/svg10.dtd">

<svg xmlns="http://www.w3.org/2000/svg"
     width="0.933333in" height="0.511111in"
     viewBox="0 0 84 46">
  <path id="Imported Path"
        fill="black" stroke="black" stroke-width="1"
        d="M 1.09,0.61
           C 1.09,0.61 12.91,0.61 12.91,0.61
             12.91,0.61 12.91,45.39 12.91,45.39
             12.91,45.39 1.09,45.39 1.09,45.39
             1.09,45.39 1.09,0.61 1.09,0.61
             1.09,0.61 1.09,0.61 1.09,0.61 Z
           M 71.36,0.61
           C 71.36,0.61 83.18,0.61 83.18,0.61
             83.18,0.61 83.18,26.71 83.18,26.71
             83.18,33.81 79.21,40.42 72.79,43.45
             65.55,46.84 57.50,45.45 51.92,39.92
             51.92,39.92 43.56,31.63 43.56,31.63
             43.56,31.63 12.91,0.63 12.91,0.63
             12.91,0.63 29.00,0.63 29.00,0.63
             29.00,0.63 60.26,31.63 60.26,31.63
             60.26,31.63 71.35,42.64 71.35,42.64
             71.35,42.64 71.35,0.61 71.35,0.61
             71.35,0.61 71.36,0.61 71.36,0.61 Z" />
</svg>
